<?xml version="1.0" standalone="no"?>
<!DOCTYPE svg PUBLIC "-//W3C//DTD SVG 20010904//EN"
 "http://www.w3.org/TR/2001/REC-SVG-20010904/DTD/svg10.dtd">
<svg version="1.0" xmlns="http://www.w3.org/2000/svg"
 width="512.000000pt" height="323.000000pt" viewBox="0 0 512.000000 323.000000"
 preserveAspectRatio="xMidYMid meet">
<metadata>
Created by potrace 1.15, written by Peter Selinger 2001-2017
</metadata>
<g transform="translate(0.000000,323.000000) scale(0.100000,-0.100000)"
fill="#000000" stroke="none">
<path d="M4817 3164 c-3 -4 -3 -20 0 -37 6 -27 4 -29 -13 -22 -81 34 -134 45
-221 45 -52 0 -92 -4 -89 -9 6 -9 -26 -21 -59 -21 -43 0 -134 -50 -92 -50 6 0
-11 -13 -39 -29 -63 -34 -134 -92 -134 -108 0 -7 -9 -17 -20 -23 -11 -6 -20
-16 -20 -22 0 -6 -25 -37 -55 -69 -30 -32 -55 -62 -55 -69 0 -26 -88 -155
-120 -176 -19 -12 -71 -33 -115 -46 -44 -12 -83 -26 -86 -31 -6 -8 -46 -5
-137 9 -23 4 -32 2 -27 -5 8 -15 -45 -14 -82 0 -25 10 -117 22 -168 21 -131
-1 -165 -5 -154 -18 10 -12 1 -14 -50 -14 -57 0 -84 -14 -43 -22 9 -2 -13 -10
-50 -17 -43 -8 -68 -18 -68 -26 0 -8 8 -15 18 -17 9 -2 -5 -10 -33 -17 -45
-12 -47 -15 -25 -21 21 -6 13 -10 -50 -29 -85 -26 -90 -29 -71 -40 9 -6 1 -11
-23 -15 -20 -4 -36 -13 -36 -20 0 -8 -33 -22 -87 -35 -49 -12 -110 -31 -138
-41 -27 -10 -67 -24 -88 -30 -22 -7 -51 -18 -65 -26 -15 -8 -35 -14 -44 -14
-9 0 -21 -6 -25 -13 -4 -8 -33 -21 -63 -29 -30 -9 -54 -21 -52 -27 1 -6 -6
-11 -15 -11 -10 -1 -72 -8 -138 -17 -66 -9 -174 -17 -240 -17 -66 -1 -123 -5
-126 -10 -4 -5 -35 -9 -70 -10 -35 0 -66 -4 -69 -7 -3 -4 -27 -3 -55 1 -27 4
-63 6 -80 3 -16 -3 -66 1 -110 8 -44 7 -102 13 -130 15 -75 3 -248 45 -450
109 -99 32 -214 66 -255 77 -41 10 -132 35 -202 54 -69 19 -141 34 -160 32
l-33 -3 40 -22 40 -22 -42 -1 c-45 0 -55 -12 -26 -29 10 -6 12 -11 6 -11 -29
0 -10 -20 30 -30 60 -15 179 -61 197 -75 8 -7 35 -19 60 -26 55 -15 58 -18 40
-29 -8 -5 -12 -11 -9 -14 7 -7 167 -31 304 -46 55 -7 118 -19 140 -29 22 -10
92 -30 155 -46 63 -15 118 -31 123 -35 4 -3 -27 -12 -70 -18 -42 -7 -79 -14
-81 -17 -13 -13 16 -19 106 -25 53 -3 104 -10 112 -15 39 -24 556 -41 765 -25
72 6 222 15 335 20 113 6 272 15 353 20 187 12 311 1 390 -33 31 -14 57 -28
57 -31 0 -9 -146 -116 -159 -116 -6 0 -14 -6 -17 -14 -3 -8 -29 -24 -57 -36
-29 -13 -77 -34 -107 -49 -53 -25 -61 -26 -230 -26 -96 1 -204 4 -240 8 -62 7
-63 6 -35 -7 17 -9 25 -15 18 -16 -12 0 -12 -24 0 -36 6 -6 247 -33 302 -34
15 0 8 -12 -35 -55 -30 -30 -62 -55 -72 -55 -22 0 -23 -8 -2 -31 14 -16 8 -24
-78 -108 -101 -100 -144 -121 -240 -121 -39 0 -54 5 -73 25 -14 13 -25 33 -25
44 0 32 -19 35 -31 4 -28 -72 18 -204 80 -230 61 -26 102 -26 203 1 125 33
201 67 224 101 11 14 34 40 51 57 18 17 33 36 33 43 0 6 8 21 18 34 9 12 26
35 37 49 12 15 26 39 33 55 6 15 16 27 21 27 5 0 20 19 34 43 44 75 61 84 231
127 101 25 180 52 222 74 l66 34 34 -71 c19 -39 34 -77 34 -84 0 -6 -13 -21
-29 -33 -31 -21 -83 -119 -96 -180 -15 -68 -83 -177 -136 -216 -27 -19 -47
-39 -45 -43 3 -4 -8 -15 -24 -24 -16 -10 -32 -27 -36 -39 -11 -36 -72 -125
-110 -162 -20 -19 -59 -43 -88 -52 -50 -17 -51 -17 -23 -27 18 -6 43 -5 69 1
29 8 46 7 59 -1 19 -12 37 -6 97 33 25 17 31 19 26 6 -8 -22 8 -20 39 4 18 15
26 17 30 8 3 -10 7 -10 19 0 13 10 18 5 36 -35 25 -59 52 -187 52 -247 0 -24
3 -52 6 -61 4 -9 47 -44 97 -78 49 -34 110 -75 134 -92 31 -21 47 -41 55 -67
13 -44 24 -40 50 18 l19 44 29 -15 c16 -8 34 -23 39 -32 16 -27 31 1 31 60 0
57 11 59 56 11 29 -31 35 -33 41 -18 5 15 -20 172 -34 210 -2 7 -25 20 -51 29
-74 28 -197 112 -251 170 -27 30 -68 92 -92 139 l-43 84 43 89 c24 48 58 105
77 126 19 20 34 41 34 46 0 6 23 36 50 67 60 69 97 133 110 190 6 27 5 122 -4
275 -8 129 -12 236 -10 238 6 7 169 -20 172 -29 2 -5 14 -25 28 -45 13 -20 27
-47 30 -61 4 -14 17 -30 30 -36 32 -15 37 -53 21 -173 -12 -91 -15 -100 -35
-103 -27 -4 -28 -14 -4 -35 27 -25 92 -31 134 -14 33 14 37 20 43 64 4 26 13
80 21 118 19 95 18 116 -10 185 l-25 60 67 0 c63 0 65 -1 44 -16 -25 -17 -21
-34 9 -34 17 0 18 -3 7 -20 -16 -26 -4 -36 27 -22 23 11 25 9 35 -26 7 -20 14
-70 17 -109 3 -40 10 -73 15 -73 5 0 8 -12 6 -27 -2 -21 -10 -29 -36 -35 -20
-6 -37 -18 -44 -34 -10 -21 -8 -28 9 -46 17 -17 35 -21 85 -22 l63 -1 42 80
c23 44 41 89 41 100 0 11 -12 72 -25 135 -14 63 -26 120 -26 126 0 10 63 141
102 213 21 37 66 175 87 264 18 77 18 78 -6 192 -27 135 -24 196 15 272 31 63
47 73 119 73 55 0 56 -1 72 -37 9 -21 20 -78 24 -128 5 -49 15 -115 24 -145
11 -37 16 -88 15 -160 -1 -58 -1 -110 0 -117 1 -13 61 -33 98 -33 16 0 25 8
29 25 5 20 10 23 34 19 32 -7 80 14 132 56 30 25 37 38 42 84 5 33 17 66 31
87 22 28 24 39 18 86 -6 52 -1 87 32 233 20 85 20 127 1 111 -11 -10 -13 -4
-9 32 4 30 1 47 -8 52 -7 5 -14 4 -17 -3 -7 -21 -22 -13 -22 12 0 12 -5 37
-11 55 -11 30 -12 31 -29 16 -17 -16 -20 -15 -35 15 -34 66 -129 190 -145 190
-4 0 -9 -3 -13 -6z"/>
</g>
</svg>
